<svg width="376" height="281" viewBox="0 0 376 281" fill="none" xmlns="http://www.w3.org/2000/svg">
<g opacity="0.2">
<mask id="mask0_5_213" style="mask-type:alpha" maskUnits="userSpaceOnUse" x="0" y="0" width="376" height="281">
<rect x="0.478607" y="0.626343" width="375" height="280" fill="url(#paint0_linear_5_213)"/>
</mask>
<g mask="url(#mask0_5_213)">
<path d="M375.15 201.507C378.793 205.15 378.793 211.056 375.15 214.699V214.699C371.507 218.342 365.6 218.342 361.957 214.699L318.195 170.936C314.552 167.293 314.552 161.387 318.195 157.744V157.744C321.838 154.101 327.744 154.101 331.387 157.744L375.15 201.507Z" fill="#F46F17"/>
<path d="M254.301 239.612C248.333 236.864 246.929 229.01 251.575 224.363V224.363C254.418 221.521 258.749 220.79 262.367 222.544L267.836 225.195C282.702 232.401 298.236 216.642 290.817 201.882L288.149 196.573C286.395 193.083 287.075 188.863 289.837 186.102V186.102C294.247 181.692 301.691 182.955 304.399 188.573L330.976 243.701C333.932 249.832 332.688 257.161 327.875 261.974V261.974C323.136 266.713 315.946 267.998 309.859 265.195L254.301 239.612Z" fill="#121212" fill-opacity="0.25"/>
<path d="M388.819 183.055C391.567 189.024 399.421 190.428 404.067 185.782V185.782C406.91 182.939 407.64 178.608 405.887 174.99L403.235 169.52C396.03 154.655 411.788 139.121 426.549 146.54L431.858 149.208C435.347 150.962 439.568 150.281 442.329 147.52V147.52C446.739 143.11 445.476 135.666 439.858 132.958L384.73 106.381C378.599 103.425 371.27 104.669 366.457 109.482V109.482C361.718 114.221 360.432 121.41 363.236 127.498L388.819 183.055Z" fill="#121212" fill-opacity="0.5"/>
<path d="M232.171 339.704C234.919 345.672 242.773 347.076 247.419 342.43V342.43C250.262 339.587 250.992 335.256 249.239 331.638L246.587 326.169C239.381 311.303 255.14 295.769 269.901 303.188L275.21 305.856C278.699 307.61 282.92 306.93 285.681 304.168V304.168C290.091 299.758 288.828 292.314 283.21 289.606L228.082 263.029C221.951 260.073 214.621 261.317 209.809 266.13V266.13C205.07 270.869 203.784 278.059 206.587 284.146L232.171 339.704Z" fill="#121212" fill-opacity="0.5"/>
<path d="M235.941 62.2973C239.584 65.9404 239.584 71.8469 235.941 75.4899V75.4899C232.298 79.1329 226.391 79.1329 222.748 75.4899L178.985 31.7271C175.342 28.0841 175.342 22.1776 178.985 18.5346V18.5346C182.628 14.8915 188.535 14.8915 192.178 18.5346L235.941 62.2973Z" fill="#F46F17"/>
<path d="M79.2925 218.945C82.9355 222.589 82.9355 228.495 79.2925 232.138V232.138C75.6495 235.781 69.743 235.781 66.0999 232.138L22.3372 188.375C18.6941 184.732 18.6941 178.826 22.3372 175.183V175.183C25.9802 171.54 31.8867 171.54 35.5297 175.183L79.2925 218.945Z" fill="#F46F17"/>
<path d="M115.092 100.403C109.124 97.6542 107.719 89.8005 112.366 85.1541V85.1541C115.208 82.3113 119.54 81.5811 123.158 83.3347L128.627 85.986C143.493 93.1919 159.027 77.4331 151.608 62.6727L148.939 57.3634C147.186 53.8741 147.866 49.6537 150.627 46.8923V46.8923C155.038 42.4822 162.481 43.7453 165.19 49.3633L191.767 104.492C194.722 110.623 193.479 117.952 188.666 122.764V122.764C183.927 127.504 176.737 128.789 170.649 125.986L115.092 100.403Z" fill="#121212" fill-opacity="0.25"/>
<path d="M249.609 43.8461C252.358 49.8147 260.212 51.2189 264.858 46.5726V46.5726C267.701 43.7298 268.431 39.3983 266.677 35.7806L264.026 30.3111C256.82 15.4456 272.579 -0.0883233 287.339 7.33034L292.649 9.9988C296.138 11.7525 300.358 11.0721 303.12 8.31074V8.31074C307.53 3.90069 306.267 -3.54299 300.649 -6.25139L245.52 -32.8285C239.39 -35.7841 232.06 -34.5404 227.248 -29.7278V-29.7278C222.508 -24.9886 221.223 -17.7989 224.026 -11.7111L249.609 43.8461Z" fill="#121212" fill-opacity="0.5"/>
<path d="M92.9613 200.494C95.7097 206.463 103.564 207.867 108.21 203.221V203.221C111.053 200.378 111.783 196.046 110.029 192.429L107.378 186.959C100.172 172.094 115.931 156.56 130.691 163.978L136.001 166.647C139.49 168.401 143.71 167.72 146.472 164.959V164.959C150.882 160.549 149.619 153.105 144.001 150.397L88.8722 123.82C82.7414 120.864 75.4121 122.108 70.5995 126.92V126.92C65.8603 131.66 64.5748 138.849 67.3781 144.937L92.9613 200.494Z" fill="#121212" fill-opacity="0.5"/>
<path d="M308.393 41.3233C304.75 37.6803 298.843 37.6803 295.2 41.3233V41.3233C291.557 44.9664 291.557 50.8729 295.2 54.5159L338.963 98.2787C342.606 101.922 348.513 101.922 352.156 98.2787V98.2787C355.799 94.6356 355.799 88.7291 352.156 85.0861L308.393 41.3233Z" fill="#F46F17"/>
<path d="M151.745 197.971C148.102 194.328 142.195 194.328 138.552 197.971V197.971C134.909 201.614 134.909 207.521 138.552 211.164L182.315 254.927C185.958 258.57 191.864 258.57 195.507 254.927V254.927C199.15 251.284 199.15 245.377 195.507 241.734L151.745 197.971Z" fill="#F46F17"/>
<path d="M270.288 162.172C273.036 168.14 280.89 169.545 285.536 164.898V164.898C288.379 162.056 289.109 157.724 287.355 154.106L284.704 148.637C277.498 133.771 293.257 118.237 308.017 125.656L313.327 128.325C316.816 130.078 321.036 129.398 323.798 126.637V126.637C328.208 122.226 326.945 114.783 321.327 112.074L266.198 85.4973C260.068 82.5417 252.738 83.7854 247.926 88.598V88.598C243.187 93.3372 241.901 100.527 244.704 106.615L270.288 162.172Z" fill="#121212" fill-opacity="0.25"/>
<path d="M113.639 318.82C116.388 324.789 124.242 326.193 128.888 321.547V321.547C131.731 318.704 132.461 314.372 130.707 310.755L128.056 305.285C120.85 290.42 136.609 274.886 151.369 282.304L156.679 284.973C160.168 286.727 164.388 286.046 167.15 283.285V283.285C171.56 278.875 170.297 271.431 164.679 268.723L109.55 242.146C103.419 239.19 96.0901 240.434 91.2775 245.246V245.246C86.5383 249.985 85.2528 257.175 88.0562 263.263L113.639 318.82Z" fill="#121212" fill-opacity="0.25"/>
<path d="M170.196 184.303C164.227 181.554 162.823 173.7 167.469 169.054V169.054C170.312 166.211 174.644 165.481 178.261 167.235L183.731 169.886C198.596 177.092 214.13 161.333 206.712 146.573L204.043 141.263C202.29 137.774 202.97 133.554 205.731 130.792V130.792C210.141 126.382 217.585 127.645 220.293 133.263L246.87 188.392C249.826 194.523 248.582 201.852 243.77 206.664V206.664C239.031 211.404 231.841 212.689 225.753 209.886L170.196 184.303Z" fill="#121212" fill-opacity="0.5"/>
<path d="M12.5354 58.7621C8.89237 55.1191 2.98586 55.1191 -0.65717 58.7621V58.7621C-4.3002 62.4051 -4.3002 68.3117 -0.657172 71.9547L43.1056 115.717C46.7486 119.36 52.6551 119.36 56.2982 115.717V115.717C59.9412 112.074 59.9412 106.168 56.2982 102.525L12.5354 58.7621Z" fill="#F46F17"/>
<path d="M131.078 22.9626C133.827 28.9311 141.68 30.3354 146.327 25.689V25.689C149.17 22.8462 149.9 18.5148 148.146 14.8971L145.495 9.42759C138.289 -5.4379 154.048 -20.9719 168.808 -13.5532L174.117 -10.8847C177.607 -9.13102 181.827 -9.81141 184.589 -12.5728V-12.5728C188.999 -16.9829 187.735 -24.4265 182.118 -27.1349L126.989 -53.712C120.858 -56.6676 113.529 -55.4239 108.716 -50.6113V-50.6113C103.977 -45.8721 102.692 -38.6825 105.495 -32.5947L131.078 22.9626Z" fill="#121212" fill-opacity="0.25"/>
<path d="M-25.57 179.611C-22.8216 185.579 -14.9678 186.984 -10.3215 182.337V182.337C-7.47869 179.494 -6.74846 175.163 -8.50209 171.545L-11.1534 166.076C-18.3592 151.21 -2.60046 135.676 12.16 143.095L17.4692 145.763C20.9585 147.517 25.179 146.837 27.9404 144.075V144.075C32.3504 139.665 31.0873 132.222 25.4693 129.513L-29.6591 102.936C-35.7899 99.9806 -43.1192 101.224 -47.9318 106.037V106.037C-52.671 110.776 -53.9565 117.966 -51.1532 124.054L-25.57 179.611Z" fill="#121212" fill-opacity="0.25"/>
<path d="M30.9866 45.0933C25.0181 42.3449 23.6138 34.4911 28.2602 29.8448V29.8448C31.1029 27.002 35.4344 26.2718 39.0521 28.0254L44.5216 30.6767C59.3871 37.8825 74.9211 22.1238 67.5024 7.36334L64.8339 2.05409C63.0802 -1.43519 63.7606 -5.65565 66.522 -8.41705V-8.41705C70.932 -12.8271 78.3757 -11.564 81.0841 -5.946L107.661 49.1824C110.617 55.3132 109.373 62.6425 104.561 67.4551V67.4551C99.8213 72.1943 92.6317 73.4798 86.5439 70.6765L30.9866 45.0933Z" fill="#121212" fill-opacity="0.5"/>
</g>
</g>
<defs>
<linearGradient id="paint0_linear_5_213" x1="375.479" y1="0.626328" x2="0.478599" y2="280.626" gradientUnits="userSpaceOnUse">
<stop stop-color="#D9D9D9"/>
<stop offset="0.610726" stop-color="#D9D9D9" stop-opacity="0"/>
</linearGradient>
</defs>
</svg>
