<svg width="14" height="14" viewBox="0 0 14 14" fill="none" xmlns="http://www.w3.org/2000/svg">
<path d="M12.7575 6.70834C12.3842 6.06084 10.3309 2.81167 6.84252 2.91667C3.61669 2.99834 1.75002 5.83334 1.24252 6.70834C1.19132 6.79702 1.16437 6.89761 1.16437 7.00001C1.16437 7.1024 1.19132 7.203 1.24252 7.29167C1.61002 7.92751 3.57585 11.0833 7.01169 11.0833H7.15752C10.3834 11.0017 12.2559 8.16667 12.7575 7.29167C12.8087 7.203 12.8357 7.1024 12.8357 7.00001C12.8357 6.89761 12.8087 6.79702 12.7575 6.70834ZM7.12835 9.91667C4.61419 9.97501 2.97502 7.82251 2.46169 7.00001C3.04502 6.06084 4.56752 4.14167 6.90085 4.08334C9.40335 4.01917 11.0484 6.17751 11.5675 7.00001C10.9667 7.93917 9.46169 9.85834 7.12835 9.91667Z" fill="#363636"/>
<path d="M6.99998 4.95834C6.59618 4.95834 6.20144 5.07809 5.86569 5.30243C5.52994 5.52677 5.26826 5.84563 5.11373 6.2187C4.9592 6.59176 4.91877 7.00228 4.99754 7.39832C5.07632 7.79436 5.27077 8.15815 5.5563 8.44369C5.84184 8.72922 6.20563 8.92367 6.60167 9.00245C6.99772 9.08122 7.40823 9.04079 7.78129 8.88626C8.15436 8.73174 8.47322 8.47005 8.69756 8.1343C8.92191 7.79855 9.04165 7.40381 9.04165 7.00001C9.04165 6.45853 8.82654 5.93922 8.44366 5.55633C8.06077 5.17345 7.54146 4.95834 6.99998 4.95834ZM6.99998 7.87501C6.82692 7.87501 6.65775 7.82369 6.51386 7.72755C6.36996 7.6314 6.25781 7.49474 6.19159 7.33486C6.12536 7.17497 6.10803 6.99904 6.14179 6.82931C6.17556 6.65957 6.25889 6.50366 6.38126 6.38129C6.50363 6.25892 6.65954 6.17559 6.82928 6.14182C6.99901 6.10806 7.17494 6.12539 7.33483 6.19162C7.49471 6.25784 7.63137 6.36999 7.72752 6.51389C7.82366 6.65778 7.87498 6.82695 7.87498 7.00001C7.87498 7.23207 7.78279 7.45463 7.6187 7.61873C7.4546 7.78282 7.23205 7.87501 6.99998 7.87501Z" fill="#363636"/>
</svg>
